<svg width="348" height="255" viewBox="0 0 348 255" fill="none" xmlns="http://www.w3.org/2000/svg">
<path d="M0 8.00001C0 3.58173 3.58172 0 8 0H340C344.418 0 348 3.58172 348 8V246.4C348 250.818 344.418 254.4 340 254.4H8C3.58172 254.4 0 250.818 0 246.4V8.00001Z" fill="#E5E7EB"/>
<path d="M186.625 110C186.625 119.986 175.547 130.386 171.827 133.598C171.48 133.859 171.059 134 170.625 134C170.191 134 169.77 133.859 169.423 133.598C165.703 130.386 154.625 119.986 154.625 110C154.625 105.757 156.311 101.687 159.311 98.6863C162.312 95.6857 166.382 94 170.625 94C174.868 94 178.938 95.6857 181.939 98.6863C184.939 101.687 186.625 105.757 186.625 110Z" stroke="#9CA3AF" stroke-width="2" stroke-linecap="round" stroke-linejoin="round"/>
<path d="M170.625 116C173.939 116 176.625 113.314 176.625 110C176.625 106.686 173.939 104 170.625 104C167.311 104 164.625 106.686 164.625 110C164.625 113.314 167.311 116 170.625 116Z" stroke="#9CA3AF" stroke-width="2" stroke-linecap="round" stroke-linejoin="round"/>
<path d="M120.915 154.05H119.867C119.805 153.749 119.697 153.484 119.542 153.256C119.39 153.027 119.204 152.836 118.984 152.681C118.767 152.523 118.526 152.405 118.261 152.326C117.997 152.247 117.721 152.208 117.433 152.208C116.909 152.208 116.434 152.34 116.009 152.605C115.586 152.87 115.25 153.26 114.999 153.775C114.751 154.291 114.627 154.923 114.627 155.673C114.627 156.422 114.751 157.055 114.999 157.57C115.25 158.086 115.586 158.476 116.009 158.741C116.434 159.006 116.909 159.138 117.433 159.138C117.721 159.138 117.997 159.098 118.261 159.02C118.526 158.941 118.767 158.824 118.984 158.669C119.204 158.511 119.39 158.318 119.542 158.09C119.697 157.859 119.805 157.594 119.867 157.295H120.915C120.836 157.738 120.693 158.134 120.484 158.483C120.276 158.832 120.017 159.129 119.707 159.375C119.397 159.617 119.049 159.801 118.663 159.928C118.28 160.055 117.87 160.118 117.433 160.118C116.695 160.118 116.039 159.938 115.464 159.577C114.889 159.217 114.437 158.704 114.107 158.039C113.778 157.374 113.613 156.586 113.613 155.673C113.613 154.76 113.778 153.971 114.107 153.306C114.437 152.641 114.889 152.129 115.464 151.768C116.039 151.407 116.695 151.227 117.433 151.227C117.87 151.227 118.28 151.291 118.663 151.417C119.049 151.544 119.397 151.73 119.707 151.975C120.017 152.217 120.276 152.513 120.484 152.863C120.693 153.209 120.836 153.605 120.915 154.05ZM124.384 160.152C123.972 160.152 123.599 160.075 123.264 159.92C122.929 159.762 122.662 159.535 122.465 159.239C122.268 158.941 122.169 158.58 122.169 158.158C122.169 157.786 122.243 157.484 122.389 157.253C122.536 157.019 122.731 156.836 122.976 156.704C123.222 156.571 123.492 156.473 123.788 156.408C124.086 156.34 124.386 156.287 124.688 156.247C125.082 156.197 125.402 156.159 125.647 156.133C125.895 156.105 126.075 156.059 126.188 155.994C126.304 155.929 126.361 155.816 126.361 155.656V155.622C126.361 155.205 126.247 154.881 126.019 154.65C125.794 154.419 125.451 154.304 124.992 154.304C124.516 154.304 124.143 154.408 123.872 154.616C123.602 154.825 123.412 155.047 123.302 155.284L122.355 154.946C122.524 154.551 122.75 154.244 123.031 154.025C123.316 153.802 123.626 153.647 123.961 153.56C124.299 153.47 124.632 153.425 124.958 153.425C125.167 153.425 125.406 153.45 125.677 153.501C125.95 153.549 126.213 153.649 126.467 153.801C126.723 153.953 126.936 154.182 127.105 154.489C127.274 154.797 127.359 155.208 127.359 155.723V160H126.361V159.121H126.311C126.243 159.262 126.13 159.413 125.973 159.573C125.815 159.734 125.605 159.87 125.343 159.983C125.081 160.096 124.761 160.152 124.384 160.152ZM124.536 159.256C124.93 159.256 125.263 159.179 125.533 159.024C125.806 158.869 126.012 158.669 126.15 158.424C126.291 158.179 126.361 157.921 126.361 157.65V156.738C126.319 156.788 126.226 156.835 126.082 156.877C125.942 156.917 125.778 156.952 125.592 156.983C125.409 157.011 125.23 157.036 125.056 157.059C124.884 157.079 124.744 157.095 124.637 157.11C124.378 157.143 124.136 157.198 123.91 157.274C123.688 157.348 123.507 157.459 123.369 157.608C123.234 157.755 123.167 157.955 123.167 158.208C123.167 158.555 123.295 158.817 123.551 158.994C123.81 159.169 124.139 159.256 124.536 159.256ZM129.179 160V153.509H130.142V154.489H130.21C130.328 154.168 130.542 153.908 130.852 153.708C131.162 153.508 131.512 153.408 131.9 153.408C131.974 153.408 132.065 153.409 132.175 153.412C132.285 153.415 132.368 153.419 132.424 153.425V154.439C132.391 154.43 132.313 154.418 132.192 154.401C132.074 154.381 131.948 154.371 131.816 154.371C131.5 154.371 131.219 154.437 130.971 154.57C130.726 154.699 130.531 154.88 130.387 155.111C130.247 155.339 130.176 155.599 130.176 155.892V160H129.179ZM136.836 153.509V154.354H133.472V153.509H136.836ZM134.453 151.954H135.45V158.141C135.45 158.422 135.491 158.634 135.573 158.775C135.657 158.913 135.764 159.006 135.894 159.053C136.026 159.098 136.166 159.121 136.312 159.121C136.422 159.121 136.512 159.115 136.583 159.104C136.653 159.09 136.709 159.079 136.752 159.07L136.954 159.966C136.887 159.992 136.792 160.017 136.671 160.042C136.55 160.07 136.397 160.085 136.211 160.085C135.929 160.085 135.653 160.024 135.382 159.903C135.115 159.782 134.892 159.597 134.715 159.349C134.54 159.101 134.453 158.789 134.453 158.411V151.954ZM140.988 160.135C140.363 160.135 139.823 159.997 139.37 159.721C138.919 159.442 138.571 159.053 138.326 158.555C138.083 158.053 137.962 157.47 137.962 156.805C137.962 156.14 138.083 155.554 138.326 155.047C138.571 154.537 138.912 154.14 139.348 153.856C139.788 153.568 140.301 153.425 140.887 153.425C141.225 153.425 141.559 153.481 141.888 153.594C142.218 153.706 142.518 153.889 142.788 154.143C143.059 154.394 143.274 154.726 143.435 155.14C143.595 155.554 143.676 156.064 143.676 156.67V157.093H138.672V156.231H142.661C142.661 155.864 142.588 155.537 142.442 155.25C142.298 154.963 142.092 154.736 141.825 154.57C141.56 154.404 141.247 154.32 140.887 154.32C140.489 154.32 140.146 154.419 139.856 154.616C139.568 154.811 139.347 155.064 139.192 155.377C139.037 155.69 138.96 156.025 138.96 156.383V156.957C138.96 157.448 139.044 157.863 139.213 158.204C139.385 158.542 139.623 158.8 139.927 158.977C140.232 159.152 140.585 159.239 140.988 159.239C141.25 159.239 141.487 159.203 141.698 159.129C141.912 159.053 142.097 158.941 142.252 158.791C142.407 158.639 142.526 158.451 142.611 158.225L143.574 158.496C143.473 158.822 143.302 159.11 143.063 159.358C142.823 159.603 142.528 159.794 142.176 159.932C141.823 160.068 141.428 160.135 140.988 160.135ZM150.991 160.135C150.45 160.135 149.972 159.999 149.558 159.725C149.144 159.449 148.82 159.06 148.586 158.559C148.352 158.055 148.235 157.459 148.235 156.771C148.235 156.09 148.352 155.498 148.586 154.997C148.82 154.495 149.145 154.108 149.562 153.834C149.979 153.561 150.461 153.425 151.008 153.425C151.43 153.425 151.764 153.495 152.009 153.636C152.257 153.774 152.446 153.932 152.575 154.109C152.708 154.284 152.811 154.428 152.884 154.54H152.968V151.345H153.966V160H153.002V159.003H152.884C152.811 159.121 152.706 159.27 152.571 159.451C152.436 159.628 152.243 159.787 151.992 159.928C151.741 160.066 151.408 160.135 150.991 160.135ZM151.126 159.239C151.526 159.239 151.864 159.135 152.14 158.927C152.416 158.715 152.626 158.424 152.77 158.052C152.913 157.677 152.985 157.245 152.985 156.755C152.985 156.27 152.915 155.846 152.774 155.483C152.633 155.116 152.425 154.832 152.149 154.629C151.872 154.423 151.532 154.32 151.126 154.32C150.703 154.32 150.351 154.429 150.069 154.646C149.79 154.86 149.581 155.152 149.44 155.521C149.302 155.887 149.233 156.298 149.233 156.755C149.233 157.217 149.303 157.636 149.444 158.014C149.588 158.389 149.799 158.687 150.078 158.91C150.36 159.129 150.709 159.239 151.126 159.239ZM158.652 160.135C158.027 160.135 157.487 159.997 157.034 159.721C156.583 159.442 156.235 159.053 155.99 158.555C155.748 158.053 155.626 157.47 155.626 156.805C155.626 156.14 155.748 155.554 155.99 155.047C156.235 154.537 156.576 154.14 157.012 153.856C157.452 153.568 157.965 153.425 158.551 153.425C158.889 153.425 159.223 153.481 159.552 153.594C159.882 153.706 160.182 153.889 160.452 154.143C160.723 154.394 160.938 154.726 161.099 155.14C161.259 155.554 161.34 156.064 161.34 156.67V157.093H156.336V156.231H160.326C160.326 155.864 160.252 155.537 160.106 155.25C159.962 154.963 159.756 154.736 159.489 154.57C159.224 154.404 158.911 154.32 158.551 154.32C158.153 154.32 157.81 154.419 157.52 154.616C157.232 154.811 157.011 155.064 156.856 155.377C156.701 155.69 156.624 156.025 156.624 156.383V156.957C156.624 157.448 156.708 157.863 156.877 158.204C157.049 158.542 157.287 158.8 157.591 158.977C157.896 159.152 158.249 159.239 158.652 159.239C158.914 159.239 159.151 159.203 159.362 159.129C159.576 159.053 159.761 158.941 159.916 158.791C160.071 158.639 160.19 158.451 160.275 158.225L161.238 158.496C161.137 158.822 160.966 159.11 160.727 159.358C160.488 159.603 160.192 159.794 159.84 159.932C159.487 160.068 159.092 160.135 158.652 160.135ZM167.201 151.345V160H166.204V151.345H167.201ZM171.665 160.135C171.079 160.135 170.564 159.996 170.122 159.717C169.683 159.438 169.339 159.048 169.091 158.546C168.846 158.045 168.723 157.459 168.723 156.788C168.723 156.112 168.846 155.522 169.091 155.018C169.339 154.513 169.683 154.122 170.122 153.843C170.564 153.564 171.079 153.425 171.665 153.425C172.251 153.425 172.763 153.564 173.203 153.843C173.645 154.122 173.989 154.513 174.234 155.018C174.482 155.522 174.606 156.112 174.606 156.788C174.606 157.459 174.482 158.045 174.234 158.546C173.989 159.048 173.645 159.438 173.203 159.717C172.763 159.996 172.251 160.135 171.665 160.135ZM171.665 159.239C172.11 159.239 172.476 159.125 172.763 158.897C173.051 158.669 173.263 158.369 173.401 157.997C173.539 157.625 173.608 157.222 173.608 156.788C173.608 156.354 173.539 155.95 173.401 155.576C173.263 155.201 173.051 154.898 172.763 154.667C172.476 154.436 172.11 154.32 171.665 154.32C171.219 154.32 170.853 154.436 170.566 154.667C170.278 154.898 170.066 155.201 169.928 155.576C169.79 155.95 169.721 156.354 169.721 156.788C169.721 157.222 169.79 157.625 169.928 157.997C170.066 158.369 170.278 158.669 170.566 158.897C170.853 159.125 171.219 159.239 171.665 159.239ZM178.765 160.135C178.157 160.135 177.633 159.992 177.193 159.704C176.754 159.417 176.415 159.021 176.179 158.517C175.942 158.012 175.824 157.436 175.824 156.788C175.824 156.129 175.945 155.547 176.187 155.043C176.432 154.536 176.773 154.14 177.21 153.856C177.649 153.568 178.162 153.425 178.748 153.425C179.205 153.425 179.616 153.509 179.982 153.678C180.348 153.847 180.648 154.084 180.882 154.388C181.116 154.692 181.261 155.047 181.317 155.453H180.32C180.244 155.157 180.075 154.895 179.813 154.667C179.554 154.436 179.205 154.32 178.765 154.32C178.376 154.32 178.035 154.422 177.742 154.625C177.452 154.825 177.225 155.108 177.062 155.474C176.901 155.838 176.821 156.264 176.821 156.755C176.821 157.256 176.9 157.693 177.058 158.065C177.218 158.436 177.444 158.725 177.734 158.931C178.027 159.137 178.371 159.239 178.765 159.239C179.024 159.239 179.259 159.194 179.471 159.104C179.682 159.014 179.861 158.884 180.007 158.715C180.154 158.546 180.258 158.343 180.32 158.107H181.317C181.261 158.49 181.122 158.835 180.899 159.142C180.679 159.446 180.388 159.689 180.024 159.869C179.664 160.046 179.244 160.135 178.765 160.135ZM184.685 160.152C184.274 160.152 183.901 160.075 183.566 159.92C183.23 159.762 182.964 159.535 182.767 159.239C182.57 158.941 182.471 158.58 182.471 158.158C182.471 157.786 182.544 157.484 182.691 157.253C182.837 157.019 183.033 156.836 183.278 156.704C183.523 156.571 183.794 156.473 184.09 156.408C184.388 156.34 184.688 156.287 184.99 156.247C185.384 156.197 185.704 156.159 185.949 156.133C186.197 156.105 186.377 156.059 186.49 155.994C186.605 155.929 186.663 155.816 186.663 155.656V155.622C186.663 155.205 186.549 154.881 186.321 154.65C186.095 154.419 185.753 154.304 185.294 154.304C184.818 154.304 184.445 154.408 184.174 154.616C183.904 154.825 183.714 155.047 183.604 155.284L182.657 154.946C182.826 154.551 183.051 154.244 183.333 154.025C183.618 153.802 183.928 153.647 184.263 153.56C184.601 153.47 184.933 153.425 185.26 153.425C185.469 153.425 185.708 153.45 185.979 153.501C186.252 153.549 186.515 153.649 186.769 153.801C187.025 153.953 187.238 154.182 187.407 154.489C187.576 154.797 187.66 155.208 187.66 155.723V160H186.663V159.121H186.612C186.545 159.262 186.432 159.413 186.274 159.573C186.117 159.734 185.907 159.87 185.645 159.983C185.383 160.096 185.063 160.152 184.685 160.152ZM184.838 159.256C185.232 159.256 185.564 159.179 185.835 159.024C186.108 158.869 186.314 158.669 186.452 158.424C186.593 158.179 186.663 157.921 186.663 157.65V156.738C186.621 156.788 186.528 156.835 186.384 156.877C186.243 156.917 186.08 156.952 185.894 156.983C185.711 157.011 185.532 157.036 185.357 157.059C185.186 157.079 185.046 157.095 184.939 157.11C184.68 157.143 184.438 157.198 184.212 157.274C183.99 157.348 183.809 157.459 183.671 157.608C183.536 157.755 183.468 157.955 183.468 158.208C183.468 158.555 183.597 158.817 183.853 158.994C184.112 159.169 184.44 159.256 184.838 159.256ZM190.478 151.345V160H189.481V151.345H190.478ZM192.305 160V153.509H193.302V160H192.305ZM192.812 152.427C192.617 152.427 192.45 152.361 192.309 152.229C192.171 152.096 192.102 151.937 192.102 151.751C192.102 151.565 192.171 151.406 192.309 151.274C192.45 151.141 192.617 151.075 192.812 151.075C193.006 151.075 193.172 151.141 193.31 151.274C193.451 151.406 193.522 151.565 193.522 151.751C193.522 151.937 193.451 152.096 193.31 152.229C193.172 152.361 193.006 152.427 192.812 152.427ZM199.726 154.963L198.83 155.216C198.774 155.067 198.691 154.922 198.581 154.781C198.474 154.637 198.328 154.519 198.142 154.426C197.956 154.333 197.718 154.287 197.427 154.287C197.03 154.287 196.699 154.378 196.434 154.561C196.172 154.742 196.041 154.971 196.041 155.25C196.041 155.498 196.132 155.694 196.312 155.838C196.492 155.981 196.774 156.101 197.157 156.197L198.121 156.433C198.701 156.574 199.133 156.79 199.418 157.08C199.702 157.367 199.845 157.738 199.845 158.191C199.845 158.563 199.738 158.896 199.523 159.189C199.312 159.482 199.016 159.713 198.636 159.882C198.256 160.051 197.813 160.135 197.309 160.135C196.647 160.135 196.099 159.992 195.665 159.704C195.231 159.417 194.957 158.997 194.841 158.445L195.788 158.208C195.878 158.558 196.048 158.82 196.299 158.994C196.553 159.169 196.884 159.256 197.292 159.256C197.757 159.256 198.126 159.158 198.399 158.96C198.676 158.76 198.814 158.521 198.814 158.242C198.814 158.017 198.735 157.828 198.577 157.676C198.419 157.521 198.177 157.405 197.85 157.329L196.768 157.076C196.174 156.935 195.737 156.717 195.458 156.421C195.182 156.122 195.044 155.749 195.044 155.301C195.044 154.935 195.147 154.611 195.353 154.329C195.561 154.047 195.844 153.826 196.202 153.665C196.563 153.505 196.971 153.425 197.427 153.425C198.07 153.425 198.574 153.565 198.94 153.847C199.309 154.129 199.571 154.501 199.726 154.963ZM203.256 160.152C202.845 160.152 202.471 160.075 202.136 159.92C201.801 159.762 201.535 159.535 201.337 159.239C201.14 158.941 201.042 158.58 201.042 158.158C201.042 157.786 201.115 157.484 201.261 157.253C201.408 157.019 201.604 156.836 201.849 156.704C202.094 156.571 202.364 156.473 202.66 156.408C202.959 156.34 203.259 156.287 203.56 156.247C203.955 156.197 204.274 156.159 204.52 156.133C204.767 156.105 204.948 156.059 205.06 155.994C205.176 155.929 205.234 155.816 205.234 155.656V155.622C205.234 155.205 205.12 154.881 204.891 154.65C204.666 154.419 204.324 154.304 203.864 154.304C203.388 154.304 203.015 154.408 202.745 154.616C202.474 154.825 202.284 155.047 202.174 155.284L201.228 154.946C201.397 154.551 201.622 154.244 201.904 154.025C202.188 153.802 202.498 153.647 202.833 153.56C203.171 153.47 203.504 153.425 203.831 153.425C204.039 153.425 204.279 153.45 204.549 153.501C204.822 153.549 205.086 153.649 205.339 153.801C205.596 153.953 205.808 154.182 205.977 154.489C206.146 154.797 206.231 155.208 206.231 155.723V160H205.234V159.121H205.183C205.115 159.262 205.003 159.413 204.845 159.573C204.687 159.734 204.477 159.87 204.215 159.983C203.953 160.096 203.633 160.152 203.256 160.152ZM203.408 159.256C203.803 159.256 204.135 159.179 204.405 159.024C204.679 158.869 204.884 158.669 205.022 158.424C205.163 158.179 205.234 157.921 205.234 157.65V156.738C205.191 156.788 205.098 156.835 204.955 156.877C204.814 156.917 204.651 156.952 204.465 156.983C204.281 157.011 204.103 157.036 203.928 157.059C203.756 157.079 203.617 157.095 203.51 157.11C203.25 157.143 203.008 157.198 202.783 157.274C202.56 157.348 202.38 157.459 202.242 157.608C202.107 157.755 202.039 157.955 202.039 158.208C202.039 158.555 202.167 158.817 202.423 158.994C202.683 159.169 203.011 159.256 203.408 159.256ZM210.874 153.509V154.354H207.51V153.509H210.874ZM208.491 151.954H209.488V158.141C209.488 158.422 209.529 158.634 209.611 158.775C209.695 158.913 209.802 159.006 209.932 159.053C210.064 159.098 210.204 159.121 210.35 159.121C210.46 159.121 210.55 159.115 210.621 159.104C210.691 159.09 210.747 159.079 210.79 159.07L210.992 159.966C210.925 159.992 210.83 160.017 210.709 160.042C210.588 160.07 210.435 160.085 210.249 160.085C209.967 160.085 209.691 160.024 209.42 159.903C209.153 159.782 208.93 159.597 208.753 159.349C208.578 159.101 208.491 158.789 208.491 158.411V151.954ZM212.374 160V153.509H213.372V160H212.374ZM212.881 152.427C212.687 152.427 212.519 152.361 212.379 152.229C212.24 152.096 212.171 151.937 212.171 151.751C212.171 151.565 212.24 151.406 212.379 151.274C212.519 151.141 212.687 151.075 212.881 151.075C213.076 151.075 213.242 151.141 213.38 151.274C213.521 151.406 213.591 151.565 213.591 151.751C213.591 151.937 213.521 152.096 213.38 152.229C213.242 152.361 213.076 152.427 212.881 152.427ZM217.835 160.135C217.249 160.135 216.735 159.996 216.293 159.717C215.853 159.438 215.51 159.048 215.262 158.546C215.017 158.045 214.894 157.459 214.894 156.788C214.894 156.112 215.017 155.522 215.262 155.018C215.51 154.513 215.853 154.122 216.293 153.843C216.735 153.564 217.249 153.425 217.835 153.425C218.421 153.425 218.934 153.564 219.373 153.843C219.816 154.122 220.159 154.513 220.404 155.018C220.652 155.522 220.776 156.112 220.776 156.788C220.776 157.459 220.652 158.045 220.404 158.546C220.159 159.048 219.816 159.438 219.373 159.717C218.934 159.996 218.421 160.135 217.835 160.135ZM217.835 159.239C218.28 159.239 218.647 159.125 218.934 158.897C219.221 158.669 219.434 158.369 219.572 157.997C219.71 157.625 219.779 157.222 219.779 156.788C219.779 156.354 219.71 155.95 219.572 155.576C219.434 155.201 219.221 154.898 218.934 154.667C218.647 154.436 218.28 154.32 217.835 154.32C217.39 154.32 217.024 154.436 216.736 154.667C216.449 154.898 216.236 155.201 216.098 155.576C215.96 155.95 215.891 156.354 215.891 156.788C215.891 157.222 215.96 157.625 216.098 157.997C216.236 158.369 216.449 158.669 216.736 158.897C217.024 159.125 217.39 159.239 217.835 159.239ZM223.296 156.095V160H222.299V153.509H223.262V154.523H223.347C223.499 154.194 223.73 153.929 224.04 153.729C224.35 153.526 224.75 153.425 225.24 153.425C225.679 153.425 226.064 153.515 226.394 153.695C226.723 153.873 226.98 154.143 227.163 154.506C227.346 154.867 227.437 155.323 227.437 155.876V160H226.44V155.943C226.44 155.433 226.308 155.036 226.043 154.751C225.778 154.464 225.415 154.32 224.953 154.32C224.634 154.32 224.35 154.389 224.099 154.528C223.851 154.666 223.655 154.867 223.512 155.132C223.368 155.397 223.296 155.718 223.296 156.095Z" fill="#4B5563"/>
</svg>
